<svg width="32" height="24" viewBox="0 0 32 24" fill="none" xmlns="http://www.w3.org/2000/svg">
<g id="vector">
<g id="icon elements">
<path id="book rectangle shape" d="M11.4856 8.37378H8.28539C8.11618 8.37378 7.979 8.51092 7.979 8.6801V19.8786C7.979 20.0477 8.11618 20.1849 8.28539 20.1849H11.4856C11.6548 20.1849 11.792 20.0477 11.792 19.8786V8.6801C11.792 8.51092 11.6548 8.37378 11.4856 8.37378Z" fill="#213555"/>
<path id="book round shape" d="M20.0176 9.76179C20.1895 10.1503 20.4173 10.5116 20.6939 10.8342C20.7199 10.8643 20.7464 10.894 20.7734 10.9231C20.8779 11.0351 20.9904 11.1394 21.11 11.2351C21.1386 11.2585 21.1683 11.2809 21.1974 11.3027C21.5454 11.5596 21.8976 11.6912 22.2248 11.6912C22.2549 11.6912 22.2846 11.6912 22.3142 11.6876L22.3465 11.685H22.3507C22.3694 11.685 22.3876 11.6808 22.4063 11.6777C22.4152 11.6777 22.4235 11.6746 22.4323 11.673L22.4651 11.6668L22.4916 11.6605L22.5234 11.6533L22.5447 11.6465L22.5811 11.6361L22.6029 11.6283C22.6144 11.6241 22.6263 11.6205 22.6378 11.6158L22.6472 11.6116C22.6628 11.6059 22.6778 11.5997 22.6935 11.5924C22.721 11.5799 22.7481 11.5664 22.7746 11.5524L22.7829 11.5472C22.8063 11.5336 22.8292 11.5201 22.8516 11.5056C22.9015 11.4727 22.9486 11.4358 22.9926 11.3953C22.9957 11.3953 22.9983 11.3896 23.0009 11.387C23.0655 11.3264 23.1234 11.2591 23.1736 11.1862L23.1824 11.1722C23.197 11.1504 23.2116 11.1285 23.2251 11.1056C23.227 11.1024 23.2288 11.0991 23.2303 11.0957C23.2449 11.0708 23.2589 11.0437 23.2719 11.0198C23.2755 11.0131 23.2781 11.0063 23.2813 11.0001C23.2927 10.9767 23.3042 10.9532 23.3146 10.9288C23.3203 10.9158 23.325 10.9018 23.3302 10.8882C23.3354 10.8747 23.3452 10.8518 23.3525 10.8326L23.365 10.7936C23.4195 10.6278 23.4544 10.4562 23.4691 10.2824C23.5211 9.69938 23.3895 9.02174 23.0982 8.37479C22.4609 6.95866 21.2853 6.1536 20.4213 6.54209C19.9786 6.74127 19.7029 7.20673 19.6452 7.85368C19.6321 8.00434 19.6305 8.15577 19.6405 8.30666C19.6782 8.81033 19.8059 9.30317 20.0176 9.76179Z" fill="#213555"/>
<path id="dot" d="M30.7178 6.54932C30.5831 6.54921 30.4513 6.58909 30.3392 6.6639C30.2271 6.73871 30.1398 6.84509 30.0882 6.96956C30.0366 7.09404 30.0232 7.23101 30.0495 7.36314C30.0759 7.49527 30.1408 7.61662 30.2362 7.71182C30.3315 7.80701 30.453 7.87178 30.5852 7.89791C30.7174 7.92404 30.8544 7.91037 30.9788 7.85862C31.1033 7.80687 31.2095 7.71937 31.2842 7.60721C31.3588 7.49504 31.3985 7.36325 31.3982 7.22852C31.3978 7.04833 31.326 6.87565 31.1984 6.74834C31.0709 6.62102 30.8981 6.54945 30.7178 6.54932Z" fill="#213555"/>
<path id="small star" d="M27.9313 8.1839C27.9264 8.16152 27.9143 8.14138 27.8968 8.1266C27.8793 8.11182 27.8574 8.10323 27.8345 8.10216C27.8116 8.1011 27.789 8.10761 27.7702 8.1207C27.7514 8.13379 27.7374 8.15271 27.7305 8.17454C27.6642 8.34659 27.5625 8.50283 27.432 8.63316C27.3016 8.7635 27.1452 8.86504 26.9731 8.93123C26.9517 8.93823 26.9331 8.95199 26.9202 8.97046C26.9072 8.98893 26.9007 9.01109 26.9014 9.03362C26.9022 9.05615 26.9103 9.07782 26.9244 9.09537C26.9385 9.11292 26.958 9.1254 26.9799 9.13093C27.1568 9.1846 27.3177 9.28115 27.4483 9.41198C27.5789 9.54281 27.6751 9.70388 27.7284 9.88086C27.7352 9.90198 27.7485 9.92039 27.7665 9.93339C27.7845 9.9464 27.8061 9.95332 27.8283 9.95315C27.8504 9.9535 27.8721 9.94678 27.8902 9.93397C27.9082 9.92115 27.9217 9.90291 27.9287 9.8819C27.9852 9.70633 28.0827 9.54674 28.2131 9.41633C28.3436 9.28592 28.5032 9.18844 28.6788 9.13197C28.7001 9.12454 28.7185 9.11056 28.7313 9.09203C28.7441 9.07351 28.7508 9.05139 28.7503 9.02886C28.7497 9.00632 28.7421 8.98454 28.7284 8.96662C28.7147 8.94871 28.6957 8.93559 28.6741 8.92915C28.495 8.88256 28.3317 8.78887 28.201 8.65782C28.0704 8.52676 27.9773 8.36312 27.9313 8.1839Z" fill="#213555"/>
<path id="big star" d="M26.7037 4.55326C27.4106 4.7904 27.8699 5.24962 28.1082 5.95742C28.1214 5.99694 28.1467 6.03132 28.1805 6.05576C28.2142 6.08019 28.2548 6.09345 28.2965 6.09368C28.338 6.09363 28.3784 6.08069 28.4123 6.05666C28.4461 6.03262 28.4716 5.99867 28.4853 5.9595C28.7319 5.25898 29.1922 4.79873 29.8935 4.55222C29.9331 4.53804 29.9673 4.5117 29.9912 4.47697C30.015 4.44223 30.0273 4.40086 30.0262 4.35875C30.0252 4.31664 30.0109 4.27592 29.9854 4.2424C29.9599 4.20888 29.9244 4.18426 29.8841 4.17205C29.1616 3.95623 28.7048 3.49961 28.4889 2.77673C28.4772 2.73701 28.4534 2.70192 28.4209 2.67632C28.3884 2.65071 28.3486 2.63585 28.3073 2.63379C28.2659 2.63174 28.2249 2.64258 28.19 2.66484C28.1551 2.68709 28.1279 2.71965 28.1123 2.75801C27.9878 3.08085 27.797 3.37403 27.5522 3.61865C27.3075 3.86328 27.0141 4.05392 26.6912 4.17829C26.6534 4.19383 26.6213 4.22052 26.5992 4.2548C26.577 4.28909 26.5659 4.32932 26.5672 4.37011C26.5686 4.4109 26.5824 4.4503 26.6068 4.48303C26.6312 4.51576 26.665 4.54027 26.7037 4.55326Z" fill="#213555"/>
<path id="books shape" d="M29.8268 22.2162H26.6313L29.2083 21.0575C29.4385 20.9533 29.6181 20.7621 29.7077 20.5259C29.7973 20.2896 29.7896 20.0275 29.6863 19.7969L27.3341 14.5697L26.3244 12.3251L22.9629 4.85238C22.9116 4.73818 22.8382 4.63521 22.747 4.54937C22.6559 4.46353 22.5487 4.3965 22.4315 4.35211C22.3144 4.30773 22.1897 4.28685 22.0645 4.29068C21.9394 4.29452 21.8162 4.32298 21.702 4.37445L17.9504 6.06101C17.8292 6.11519 17.7209 6.19442 17.6326 6.29347L16.3186 0.73454C16.2899 0.612632 16.2375 0.497567 16.1644 0.395934C16.0912 0.294302 15.9987 0.208096 15.8921 0.142254C15.7856 0.0764112 15.6671 0.0322248 15.5435 0.0122242C15.4198 -0.00777643 15.2934 -0.00319841 15.1716 0.0256962L12.1649 0.73558C11.919 0.79412 11.7063 0.947783 11.5736 1.16286C11.4409 1.37793 11.3989 1.63686 11.4569 1.88283L12.4151 5.93931C12.3122 5.90209 12.2036 5.88291 12.0941 5.88263H7.67775C7.56122 5.88289 7.44572 5.90458 7.33703 5.94659V3.01605C7.33675 2.74731 7.22985 2.48966 7.03978 2.29963C6.8497 2.1096 6.59199 2.00272 6.32318 2.00245H2.31775C2.18447 2.00231 2.05247 2.02842 1.92929 2.07929C1.8061 2.13015 1.69415 2.20477 1.59981 2.29889C1.50547 2.39302 1.4306 2.50479 1.37947 2.62784C1.32834 2.75089 1.30196 2.8828 1.30182 3.01605V21.6654C1.30169 21.8617 1.35901 22.0537 1.46672 22.2178H0.870066C0.637396 22.2234 0.416147 22.3197 0.253576 22.4862C0.0910046 22.6527 0 22.8762 0 23.1089C0 23.3416 0.0910046 23.565 0.253576 23.7315C0.416147 23.898 0.637396 23.9944 0.870066 24H29.8268C30.0595 23.9944 30.2807 23.898 30.4433 23.7315C30.6058 23.565 30.6969 23.3416 30.6969 23.1089C30.6969 22.8762 30.6058 22.6527 30.4433 22.4862C30.2807 22.3197 30.0595 22.2234 29.8268 22.2178V22.2162ZM21.083 20.8895L20.6481 19.0521L20.2626 17.4217L18.3223 9.21414L20.8338 14.796L21.8435 17.04L24.1729 22.2178H19.615L20.374 22.0388C20.6202 21.9801 20.8331 21.8261 20.966 21.6107C21.0989 21.3952 21.141 21.1359 21.083 20.8895ZM26.9007 15.1002L29.1271 20.0481C29.1643 20.1304 29.1672 20.2241 29.1353 20.3087C29.1034 20.3932 29.0393 20.4616 28.957 20.4989L25.2055 22.1865C25.1229 22.2234 25.029 22.2261 24.9445 22.1939C24.8599 22.1617 24.7916 22.0974 24.7544 22.0149L22.528 17.066L22.5801 17.0416L26.9007 15.1002ZM18.0227 6.80938C18.0385 6.76749 18.0625 6.72915 18.0932 6.69657C18.1239 6.66399 18.1608 6.63782 18.2017 6.61955L21.9538 4.93247C21.9976 4.91282 22.0451 4.90254 22.0932 4.90231C22.1344 4.90222 22.1754 4.90981 22.2139 4.92467C22.2559 4.9404 22.2943 4.96432 22.327 4.99503C22.3597 5.02574 22.3859 5.06263 22.4042 5.10357L25.6403 12.2965L21.7358 14.0523L21.2676 14.2634L18.0295 7.07253C18.0108 7.03134 18.0006 6.98684 17.9994 6.94164C17.9983 6.89643 18.0062 6.85146 18.0227 6.80938ZM17.7975 18.3168L19.7367 17.8581L19.9817 18.8946L17.5218 19.4755L16.3129 19.762L16.0684 18.7266L17.7975 18.3168ZM12.9181 2.10282L15.1097 1.58536C15.1489 1.57584 15.1897 1.57417 15.2297 1.58045C15.2696 1.58673 15.3079 1.60084 15.3423 1.62195C15.3768 1.64307 15.4068 1.67078 15.4305 1.70351C15.4542 1.73623 15.4712 1.77331 15.4806 1.81263L16.3649 5.55031C16.3741 5.58944 16.3756 5.63002 16.3692 5.66972C16.3627 5.70942 16.3485 5.74746 16.3274 5.78166C16.3062 5.81586 16.2785 5.84556 16.2458 5.86904C16.2132 5.89252 16.1762 5.90933 16.137 5.91851L13.9455 6.43857C13.9224 6.4439 13.8989 6.44669 13.8753 6.44689C13.8062 6.44695 13.7392 6.42365 13.6851 6.38078C13.6309 6.33791 13.5929 6.278 13.5772 6.21078L12.6929 2.4731C12.6833 2.434 12.6815 2.39339 12.6876 2.35359C12.6937 2.31379 12.7076 2.27559 12.7286 2.24118C12.7495 2.20678 12.777 2.17685 12.8095 2.1531C12.8421 2.12936 12.879 2.11227 12.9181 2.10282ZM7.33495 21.6639V6.83434C7.33509 6.74399 7.37101 6.65737 7.43486 6.59344C7.49872 6.5295 7.5853 6.49345 7.67567 6.49318H12.0941C12.1846 6.49332 12.2713 6.5293 12.3353 6.59325C12.3992 6.6572 12.4352 6.7439 12.4354 6.83434V21.7242C12.4352 21.8146 12.3992 21.9012 12.3352 21.9651C12.2713 22.029 12.1846 22.0649 12.0941 22.0649H7.67775C7.58743 22.0647 7.50084 22.0288 7.43698 21.9649C7.37311 21.9011 7.33717 21.8145 7.33703 21.7242L7.33495 21.6639ZM1.9146 6.70432H6.72217V7.35232H1.9146V6.70432ZM1.9146 7.96443H6.72217V9.405H1.9146V7.96443ZM1.9146 17.2044H6.72217V17.8518H1.9146V17.2044ZM13.0466 21.7242V8.61503L15.3989 18.5685L15.7843 20.1984L16.2187 22.0368C16.233 22.0979 16.2534 22.1575 16.2796 22.2146H12.9093C12.9996 22.067 13.0474 21.8973 13.0476 21.7242H13.0466Z" fill="#213555"/>
</g>
</g>
</svg>
