<svg width="112" height="72" viewBox="0 0 112 72" fill="none" xmlns="http://www.w3.org/2000/svg">
<g id="Asset 1 2">
<g id="OBJECTS">
<g id="Group">
<g id="Group_2">
<g id="Group_3">
<path id="Vector" d="M4.78741 27.5201L30.7804 4.94879C32.5573 3.18655 34.9657 2.20264 37.4769 2.20264H88.7434C96.1007 2.20264 102.063 8.16487 102.063 15.5222C102.063 19.0614 100.653 22.439 98.1566 24.9502L75.3797 47.7271C75.1594 47.9474 74.7923 47.7859 74.7923 47.4775V40.0467C74.7923 33.4677 69.2853 28.2103 62.7063 28.5334L5.27202 28.6803C4.66992 28.6803 4.36153 27.946 4.80209 27.5201H4.78741Z" stroke="#213555" stroke-width="4" stroke-linecap="round" stroke-linejoin="round"/>
<path id="Vector_2" d="M74.7924 45.6418V46.5377C74.7924 48.2118 73.4414 48.6817 71.7525 48.6817H4.91968" stroke="#213555" stroke-width="4" stroke-linecap="round" stroke-linejoin="round"/>
<path id="Vector_3" d="M60.6651 39.0188H11.3665" stroke="#213555" stroke-width="4" stroke-linecap="round" stroke-linejoin="round"/>
</g>
<g id="Group_4">
<path id="Vector_4" d="M100.139 23.3789C104.927 25.4055 108.275 30.1342 108.275 35.6558C108.275 39.195 106.865 42.5726 104.369 45.0838L81.5918 67.8607C81.3715 68.081 81.0044 67.9195 81.0044 67.6111V60.1803C81.0044 53.6013 75.4974 48.3439 68.9184 48.667L11.4841 48.8139" stroke="#213555" stroke-width="4" stroke-linecap="round" stroke-linejoin="round"/>
<path id="Vector_5" d="M80.9896 65.7754V66.6712C80.9896 68.3453 79.6386 68.8153 77.9497 68.8153H6.47632" stroke="#213555" stroke-width="4" stroke-linecap="round" stroke-linejoin="round"/>
<path id="Vector_6" d="M66.8623 59.1523H12.9231" stroke="#213555" stroke-width="4" stroke-linecap="round" stroke-linejoin="round"/>
</g>
</g>
</g>
</g>
</g>
</svg>
