<svg width="98" height="64" viewBox="0 0 98 64" fill="none" xmlns="http://www.w3.org/2000/svg">
<g id="OBJECTS">
<g id="Group">
<g id="Group_2">
<g id="Group_3">
<path id="Vector" d="M1.17886 24.442L25.2463 3.54272C26.8916 1.91103 29.1216 1 31.4468 1H78.9154C85.7277 1 91.2483 6.52056 91.2483 13.3329C91.2483 16.6099 89.9429 19.7373 87.6314 22.0624L66.5417 43.1521C66.3378 43.356 65.9978 43.2065 65.9978 42.9209V36.0406C65.9978 29.9489 60.8988 25.0811 54.8072 25.3802L1.62757 25.5162C1.07008 25.5162 0.784532 24.8363 1.19246 24.442H1.17886Z" stroke="#686868" stroke-width="2" stroke-linecap="round" stroke-linejoin="round"/>
<path id="Vector_2" d="M65.9979 41.2212V42.0506C65.9979 43.6007 64.7469 44.0359 63.1832 44.0359H1.30127" stroke="#686868" stroke-width="2" stroke-linecap="round" stroke-linejoin="round"/>
<path id="Vector_3" d="M52.9171 35.0887H7.27051" stroke="#686868" stroke-width="2" stroke-linecap="round" stroke-linejoin="round"/>
</g>
<g id="Group_4">
<path id="Vector_4" d="M89.4669 20.6075C93.8996 22.484 96.9999 26.8624 96.9999 31.975C96.9999 35.252 95.6945 38.3794 93.3829 40.7046L72.2933 61.7942C72.0894 61.9981 71.7494 61.8486 71.7494 61.563V54.6827C71.7494 48.5911 66.6504 43.7232 60.5587 44.0223L7.37915 44.1583" stroke="#686868" stroke-width="2" stroke-linecap="round" stroke-linejoin="round"/>
<path id="Vector_5" d="M71.7358 59.8634V60.6928C71.7358 62.243 70.4849 62.6781 68.9212 62.6781H2.74243" stroke="#686868" stroke-width="2" stroke-linecap="round" stroke-linejoin="round"/>
<path id="Vector_6" d="M58.6551 53.7308H8.71167" stroke="#686868" stroke-width="2" stroke-linecap="round" stroke-linejoin="round"/>
</g>
</g>
</g>
</g>
</svg>
