<svg width="32" height="33" viewBox="0 0 32 33" fill="none" xmlns="http://www.w3.org/2000/svg">
<g id="ph:books">
<path id="Vector" d="M28.9562 24.783L24.8075 5.05802C24.7538 4.80007 24.6497 4.55527 24.5012 4.33767C24.3526 4.12007 24.1626 3.93397 23.9419 3.79006C23.7212 3.64614 23.4742 3.54725 23.2152 3.49907C22.9562 3.45088 22.6902 3.45435 22.4325 3.50927L16.5812 4.76677C16.0637 4.88009 15.6118 5.19319 15.3239 5.63795C15.036 6.08271 14.9353 6.62317 15.0437 7.14177L19.1925 26.8668C19.285 27.3168 19.5295 27.7213 19.8851 28.0122C20.2407 28.3031 20.6856 28.4628 21.145 28.4643C21.287 28.464 21.4286 28.449 21.5675 28.4193L27.4188 27.1618C27.9369 27.0482 28.3893 26.7345 28.6772 26.2889C28.9652 25.8434 29.0655 25.3021 28.9562 24.783ZM17 6.73302V6.72177L22.85 5.47177L23.2663 7.45552L17.4163 8.71427L17 6.73302ZM17.8275 10.6668L23.68 9.41052L24.0975 11.398L18.25 12.6555L17.8275 10.6668ZM18.6575 14.613L24.51 13.3555L26.1725 21.2605L20.32 22.518L18.6575 14.613ZM27 25.2068L21.15 26.4568L20.7337 24.473L26.5837 23.2143L27 25.1955V25.2068ZM13 4.46427H7C6.46957 4.46427 5.96086 4.67498 5.58579 5.05006C5.21071 5.42513 5 5.93384 5 6.46427V26.4643C5 26.9947 5.21071 27.5034 5.58579 27.8785C5.96086 28.2536 6.46957 28.4643 7 28.4643H13C13.5304 28.4643 14.0391 28.2536 14.4142 27.8785C14.7893 27.5034 15 26.9947 15 26.4643V6.46427C15 5.93384 14.7893 5.42513 14.4142 5.05006C14.0391 4.67498 13.5304 4.46427 13 4.46427ZM7 6.46427H13V8.46427H7V6.46427ZM7 10.4643H13V22.4643H7V10.4643ZM13 26.4643H7V24.4643H13V26.4643Z" fill="#213555"/>
</g>
</svg>
